<svg xmlns="http://www.w3.org/2000/svg" viewBox="0 0 31.64 31.82"><defs><style>.cls-1{fill:#01b12d;}.cls-2{fill:#fdfefd;}</style></defs><g id="Capa_2" data-name="Capa 2"><g id="Capa_1-2" data-name="Capa 1"><circle class="cls-1" cx="15.82" cy="15.82" r="15.82"/><circle class="cls-1" cx="15.82" cy="16" r="15.82"/><path class="cls-2" d="M22.28,16.57c0,1.44,0,2.89,0,4.34,0,.23.07.3.3.29.41,0,.81,0,1.22,0,.17,0,.24,0,.24.22,0,.83,0,1.67,0,2.5,0,.19-.08.22-.24.21H16.92c-.18,0-.23-.05-.23-.23,0-.83,0-1.67,0-2.5,0-.16,0-.21.21-.21.41,0,.82,0,1.22,0,.18,0,.23-.06.23-.23q0-3,0-6c0-.19-.05-.25-.25-.25H13.48c-.19,0-.25.05-.25.25v6c0,.21.07.24.25.24H14.7c.2,0,.24.06.24.25,0,.81,0,1.62,0,2.44,0,.18,0,.25-.24.25H7.83c-.19,0-.22-.07-.22-.24,0-.82,0-1.64,0-2.47,0-.19.06-.24.25-.24.4,0,.79,0,1.19,0,.18,0,.25,0,.25-.23q0-3,0-6c0-.2-.06-.25-.25-.24H7.83c-.16,0-.22,0-.22-.21q0-1.2,0-2.4c0-.19.07-.23.24-.22H9.07c.18,0,.23,0,.23-.23s0-.54,0-.81a3.54,3.54,0,0,1,2.19-3.44,4.69,4.69,0,0,1,2-.49c.73,0,1.46,0,2.19,0,.16,0,.21,0,.21.21,0,.86,0,1.73,0,2.59,0,.2-.08.22-.24.22h-1a1.25,1.25,0,0,0-1.4,1.41c0,.57,0,.57.57.57,2.7,0,5.41,0,8.12,0,.33,0,.38.1.38.4C22.27,13.73,22.28,15.15,22.28,16.57Z"/><path class="cls-2" d="M18.39,8.57a1.93,1.93,0,1,1,1.93,1.92A1.93,1.93,0,0,1,18.39,8.57Z"/></g></g></svg>