<svg id="logo" xmlns="http://www.w3.org/2000/svg" width="97" height="29" viewBox="0 0 97 29">
  <path id="Trazado_1" data-name="Trazado 1" d="M88.949,14.027H85.516c-2.21,0-3.394,1.655-3.394,4.413v9.97H75.611V14.026H72.848c-2.21,0-3.393,1.655-3.393,4.413v9.97H62.943V8.707h6.512V11.7a4.522,4.522,0,0,1,4.7-2.995h7.971V11.7a4.522,4.522,0,0,1,4.7-2.995h2.13v5.32ZM61.522,20.1H47.947a3.77,3.77,0,0,0,4.064,3.468c1.736,0,2.96-.71,3.355-1.97l5.761,1.615c-1.42,3.428-4.933,5.517-9.116,5.517a9.922,9.922,0,0,1-10.3-10.166c0-4.61,2.841-10.127,9.9-10.127,7.5,0,9.984,5.6,9.984,9.733q.007.966-.078,1.93Zm-6.314-3.822A3.472,3.472,0,0,0,51.617,13c-2.053,0-3.275.9-3.67,3.27ZM30.347,28.409h5.721l7.143-19.7h-6.55L33.188,20.174,29.636,8.708H23.124Zm-26.677,0h6.472V14.027H16.3V28.41h6.432V8.708H10.142V7.487A2.154,2.154,0,0,1,12.589,5.32H16.3V0H11.524C6.827,0,3.67,2.877,3.67,7.092V8.708H0v5.32H3.67Z" fill="#33353a"/>
  <path id="Trazado_2" data-name="Trazado 2" d="M92.975,29a4.02,4.02,0,1,0-4.026-4.019A4.023,4.023,0,0,0,92.975,29Z" fill="#1dbf73"/>
</svg>
